<svg width="420" height="192" viewBox="0 0 420 192" fill="none" xmlns="http://www.w3.org/2000/svg">
<path fill-rule="evenodd" clip-rule="evenodd" d="M49.6814 1C38.6357 1 29.6814 9.95431 29.6814 21V101H3.00558C1.32857 101 0.396228 102.94 1.44385 104.249L29.6814 139.546V171C29.6814 182.046 38.6357 191 49.6814 191H398.787C409.832 191 418.787 182.046 418.787 171V21C418.787 9.95431 409.832 1 398.787 1H49.6814Z" fill="white"/>
<path d="M29.6814 101V102H30.6814V101H29.6814ZM1.44385 104.249L0.662978 104.874H0.662978L1.44385 104.249ZM29.6814 139.546H30.6814V139.196L30.4623 138.922L29.6814 139.546ZM30.6814 21C30.6814 10.5066 39.188 2 49.6814 2V0C38.0835 0 28.6814 9.40202 28.6814 21H30.6814ZM30.6814 101V21H28.6814V101H30.6814ZM29.6814 100H3.00558V102H29.6814V100ZM3.00558 100C0.490062 100 -0.908449 102.91 0.662978 104.874L2.22472 103.625C1.70091 102.97 2.16708 102 3.00558 102V100ZM0.662978 104.874L28.9006 140.171L30.4623 138.922L2.22472 103.625L0.662978 104.874ZM30.6814 171V139.546H28.6814V171H30.6814ZM49.6814 190C39.188 190 30.6814 181.493 30.6814 171H28.6814C28.6814 182.598 38.0835 192 49.6814 192V190ZM398.787 190H49.6814V192H398.787V190ZM417.787 171C417.787 181.493 409.28 190 398.787 190V192C410.385 192 419.787 182.598 419.787 171H417.787ZM417.787 21V171H419.787V21H417.787ZM398.787 2C409.28 2 417.787 10.5066 417.787 21H419.787C419.787 9.40202 410.385 0 398.787 0V2ZM49.6814 2H398.787V0H49.6814V2Z" fill="url(#paint0_linear_64_6705)"/>
<defs>
<linearGradient id="paint0_linear_64_6705" x1="1.00183" y1="96" x2="418.787" y2="96" gradientUnits="userSpaceOnUse">
<stop stop-color="#F7941D"/>
<stop offset="1" stop-color="#27AAE1"/>
</linearGradient>
</defs>
</svg>
