<svg width="180" height="180" viewBox="0 0 180 180" fill="none" xmlns="http://www.w3.org/2000/svg">
<path d="M134.084 2.55469C136.154 0.481931 139.895 0.482052 141.966 2.55469L177.241 37.8701C179.608 40.2392 179.551 43.6815 177.279 45.7285L177.26 45.7461L177.241 45.7646L138.411 84.6396C135.56 87.4939 135.56 92.5061 138.411 95.3604L177.241 134.235C179.312 136.309 179.312 140.056 177.241 142.13L141.966 177.445C139.895 179.518 136.154 179.518 134.084 177.445L95.2539 138.571C92.4022 135.716 87.3927 135.716 84.541 138.571L45.7109 177.445C43.6405 179.518 39.8996 179.518 37.8291 177.445L2.55371 142.13C0.48263 140.056 0.482625 136.309 2.55371 134.235L41.3838 95.3604C44.2344 92.5061 44.2344 87.4939 41.3838 84.6396L2.55371 45.7646C0.482627 43.6912 0.482627 39.9436 2.55371 37.8701L37.8291 2.55469C39.8996 0.482059 43.6405 0.481934 45.7109 2.55469L84.541 41.4287C87.3927 44.2837 92.4022 44.2837 95.2539 41.4287L134.084 2.55469Z" stroke="url(#paint0_linear_88_3372)" stroke-width="2"/>
<defs>
<linearGradient id="paint0_linear_88_3372" x1="0" y1="90" x2="180" y2="90" gradientUnits="userSpaceOnUse">
<stop stop-color="#F7941D"/>
<stop offset="1" stop-color="#27AAE1"/>
</linearGradient>
</defs>
</svg>
