<svg width="18" height="18" viewBox="0 0 18 18" fill="none" xmlns="http://www.w3.org/2000/svg">
<path d="M17.4375 8.71875C17.4375 10.875 16.7344 12.7734 15.3281 14.4141C13.9219 16.0312 12.1758 17.0039 10.0898 17.332V11.25H12.1289L12.5156 8.71875H10.0898V7.06641C10.0898 6.17578 10.5586 5.73047 11.4961 5.73047H12.5859V3.58594C11.9297 3.46875 11.2852 3.41016 10.6523 3.41016C9.97266 3.41016 9.38672 3.53906 8.89453 3.79688C8.42578 4.05469 8.05078 4.44141 7.76953 4.95703C7.48828 5.47266 7.34766 6.08203 7.34766 6.78516V8.71875H5.13281V11.25H7.34766V17.332C5.26172 17.0039 3.51562 16.0312 2.10938 14.4141C0.703125 12.7734 0 10.875 0 8.71875C0 6.30469 0.84375 4.25391 2.53125 2.56641C4.24219 0.855469 6.30469 0 8.71875 0C11.1328 0 13.1836 0.855469 14.8711 2.56641C16.582 4.25391 17.4375 6.30469 17.4375 8.71875Z" fill="white"/>
</svg>
