<svg width="16" height="16" viewBox="0 0 16 16" fill="none" xmlns="http://www.w3.org/2000/svg">
<path d="M4.99219 5.02734C5.78906 4.23047 6.75 3.83203 7.875 3.83203C9 3.83203 9.94922 4.23047 10.7227 5.02734C11.5195 5.80078 11.918 6.75 11.918 7.875C11.918 9 11.5195 9.96094 10.7227 10.7578C9.94922 11.5312 9 11.918 7.875 11.918C6.75 11.918 5.78906 11.5312 4.99219 10.7578C4.21875 9.96094 3.83203 9 3.83203 7.875C3.83203 6.75 4.21875 5.80078 4.99219 5.02734ZM6.01172 9.73828C6.52734 10.2539 7.14844 10.5117 7.875 10.5117C8.60156 10.5117 9.22266 10.2539 9.73828 9.73828C10.2539 9.22266 10.5117 8.60156 10.5117 7.875C10.5117 7.14844 10.2539 6.52734 9.73828 6.01172C9.22266 5.49609 8.60156 5.23828 7.875 5.23828C7.14844 5.23828 6.52734 5.49609 6.01172 6.01172C5.49609 6.52734 5.23828 7.14844 5.23828 7.875C5.23828 8.60156 5.49609 9.22266 6.01172 9.73828ZM12.7266 3.02344C12.9141 3.1875 13.0078 3.39844 13.0078 3.65625C13.0078 3.91406 12.9141 4.13672 12.7266 4.32422C12.5625 4.51172 12.3516 4.60547 12.0938 4.60547C11.8359 4.60547 11.6133 4.51172 11.4258 4.32422C11.2383 4.13672 11.1445 3.91406 11.1445 3.65625C11.1445 3.39844 11.2383 3.1875 11.4258 3.02344C11.6133 2.83594 11.8359 2.74219 12.0938 2.74219C12.3516 2.74219 12.5625 2.83594 12.7266 3.02344ZM15.7148 4.64062C15.7383 5.27344 15.75 6.35156 15.75 7.875C15.75 9.39844 15.7383 10.4766 15.7148 11.1094C15.6445 12.5391 15.2109 13.6523 14.4141 14.4492C13.6406 15.2227 12.5391 15.6328 11.1094 15.6797C10.4766 15.7266 9.39844 15.75 7.875 15.75C6.35156 15.75 5.27344 15.7266 4.64062 15.6797C3.21094 15.6094 2.10938 15.1875 1.33594 14.4141C1.03125 14.1328 0.785156 13.8047 0.597656 13.4297C0.410156 13.0547 0.269531 12.6914 0.175781 12.3398C0.105469 11.9883 0.0703125 11.5781 0.0703125 11.1094C0.0234375 10.4766 0 9.39844 0 7.875C0 6.35156 0.0234375 5.26172 0.0703125 4.60547C0.140625 3.19922 0.5625 2.10938 1.33594 1.33594C2.10938 0.539062 3.21094 0.105469 4.64062 0.0351562C5.27344 0.0117187 6.35156 0 7.875 0C9.39844 0 10.4766 0.0117187 11.1094 0.0351562C12.5391 0.105469 13.6406 0.539062 14.4141 1.33594C15.2109 2.10938 15.6445 3.21094 15.7148 4.64062ZM14.0273 12.5156C14.0977 12.3281 14.1562 12.0938 14.2031 11.8125C14.25 11.5078 14.2852 11.1562 14.3086 10.7578C14.332 10.3359 14.3438 9.99609 14.3438 9.73828C14.3438 9.48047 14.3438 9.11719 14.3438 8.64844C14.3438 8.17969 14.3438 7.92188 14.3438 7.875C14.3438 7.80469 14.3438 7.54688 14.3438 7.10156C14.3438 6.63281 14.3438 6.26953 14.3438 6.01172C14.3438 5.75391 14.332 5.42578 14.3086 5.02734C14.2852 4.60547 14.25 4.25391 14.2031 3.97266C14.1562 3.66797 14.0977 3.42188 14.0273 3.23438C13.7461 2.50781 13.2422 2.00391 12.5156 1.72266C12.3281 1.65234 12.082 1.59375 11.7773 1.54688C11.4961 1.5 11.1445 1.46484 10.7227 1.44141C10.3242 1.41797 9.99609 1.40625 9.73828 1.40625C9.50391 1.40625 9.14062 1.40625 8.64844 1.40625C8.17969 1.40625 7.92188 1.40625 7.875 1.40625C7.82812 1.40625 7.57031 1.40625 7.10156 1.40625C6.63281 1.40625 6.26953 1.40625 6.01172 1.40625C5.75391 1.40625 5.41406 1.41797 4.99219 1.44141C4.59375 1.46484 4.24219 1.5 3.9375 1.54688C3.65625 1.59375 3.42188 1.65234 3.23438 1.72266C2.50781 2.00391 2.00391 2.50781 1.72266 3.23438C1.65234 3.42188 1.59375 3.66797 1.54688 3.97266C1.5 4.25391 1.46484 4.60547 1.44141 5.02734C1.41797 5.42578 1.40625 5.75391 1.40625 6.01172C1.40625 6.24609 1.40625 6.60938 1.40625 7.10156C1.40625 7.57031 1.40625 7.82812 1.40625 7.875C1.40625 7.96875 1.40625 8.19141 1.40625 8.54297C1.40625 8.87109 1.40625 9.15234 1.40625 9.38672C1.40625 9.59766 1.40625 9.87891 1.40625 10.2305C1.42969 10.582 1.45312 10.8867 1.47656 11.1445C1.5 11.3789 1.53516 11.625 1.58203 11.8828C1.62891 12.1406 1.67578 12.3516 1.72266 12.5156C2.02734 13.2422 2.53125 13.7461 3.23438 14.0273C3.42188 14.0977 3.65625 14.1562 3.9375 14.2031C4.24219 14.25 4.59375 14.2852 4.99219 14.3086C5.41406 14.332 5.74219 14.3438 5.97656 14.3438C6.23438 14.3438 6.59766 14.3438 7.06641 14.3438C7.55859 14.3438 7.82812 14.3438 7.875 14.3438C7.94531 14.3438 8.20312 14.3438 8.64844 14.3438C9.11719 14.3438 9.48047 14.3438 9.73828 14.3438C9.99609 14.3438 10.3242 14.332 10.7227 14.3086C11.1445 14.2852 11.4961 14.25 11.7773 14.2031C12.082 14.1562 12.3281 14.0977 12.5156 14.0273C13.2422 13.7227 13.7461 13.2188 14.0273 12.5156Z" fill="white"/>
</svg>
