<svg width="16" height="14" viewBox="0 0 16 14" fill="none" xmlns="http://www.w3.org/2000/svg">
<path d="M15.75 1.33594L13.3594 12.5156C13.1719 13.3125 12.7383 13.5234 12.0586 13.1484L8.4375 10.4766L6.67969 12.1641C6.44531 12.3984 6.19922 12.5156 5.94141 12.5156L6.22266 8.82422L12.9375 2.77734C13.1016 2.61328 13.1016 2.51953 12.9375 2.49609C12.7969 2.44922 12.6445 2.48438 12.4805 2.60156L4.18359 7.83984L0.597656 6.71484C0.199219 6.59766 0.0117188 6.42188 0.0351562 6.1875C0.0585937 5.95312 0.304688 5.75391 0.773438 5.58984L14.7305 0.175781C15.082 0.0585938 15.3633 0.105469 15.5742 0.316406C15.7852 0.503906 15.8438 0.84375 15.75 1.33594Z" fill="white"/>
</svg>
