<svg width="20" height="14" viewBox="0 0 20 14" fill="none" xmlns="http://www.w3.org/2000/svg">
<path d="M18.8086 2.10938C18.8789 2.39062 18.9375 2.74219 18.9844 3.16406C19.0547 3.58594 19.1016 4.00781 19.125 4.42969C19.1484 4.82812 19.1602 5.20312 19.1602 5.55469C19.1836 5.90625 19.1953 6.19922 19.1953 6.43359V6.75C19.1953 8.85938 19.0664 10.418 18.8086 11.4258C18.6914 11.8242 18.4805 12.1758 18.1758 12.4805C17.8711 12.7852 17.5078 12.9961 17.0859 13.1133C16.6406 13.2305 15.7969 13.3242 14.5547 13.3945C13.3125 13.4414 12.1758 13.4766 11.1445 13.5H9.59766C5.58984 13.5 3.09375 13.3711 2.10938 13.1133C1.19531 12.8555 0.621094 12.293 0.386719 11.4258C0.269531 10.9805 0.175781 10.3711 0.105469 9.59766C0.0585938 8.80078 0.0234375 8.13281 0 7.59375V6.75C0 4.66406 0.128906 3.11719 0.386719 2.10938C0.503906 1.6875 0.714844 1.32422 1.01953 1.01953C1.32422 0.714844 1.6875 0.503906 2.10938 0.386719C2.55469 0.269531 3.39844 0.1875 4.64062 0.140625C5.88281 0.0703125 7.01953 0.0234375 8.05078 0H9.59766C13.6055 0 16.1016 0.128906 17.0859 0.386719C17.5078 0.503906 17.8711 0.714844 18.1758 1.01953C18.4805 1.32422 18.6914 1.6875 18.8086 2.10938ZM7.62891 9.63281L12.6562 6.75L7.62891 3.90234V9.63281Z" fill="white"/>
</svg>
