<svg width="85" height="85" viewBox="0 0 85 85" fill="none" xmlns="http://www.w3.org/2000/svg">
<path d="M63.5674 1.57715C64.3367 0.807944 65.7648 0.807992 66.5342 1.57715L83.1602 18.2021C84.0801 19.1222 84.0237 20.3908 83.1982 21.1338L83.1787 21.1514L64.8594 39.4707C63.309 41.0211 63.309 43.7162 64.8594 45.2666L83.1602 63.5674C83.9291 64.3367 83.929 65.7648 83.1602 66.5342L66.5342 83.1602C65.7648 83.929 64.3367 83.9291 63.5674 83.1602L45.2666 64.8594C43.7162 63.309 41.0211 63.309 39.4707 64.8594L21.1699 83.1602C20.4006 83.9294 18.9715 83.9294 18.2021 83.1602L1.57715 66.5342C0.807992 65.7648 0.807944 64.3367 1.57715 63.5674L19.8779 45.2666C21.4282 43.7163 21.428 41.0211 19.8779 39.4707L1.57715 21.1699C0.807776 20.4005 0.807776 18.9715 1.57715 18.2021L18.2021 1.57715C18.9715 0.807776 20.4005 0.807776 21.1699 1.57715L39.4707 19.8779C41.0211 21.428 43.7163 21.4282 45.2666 19.8779L63.5674 1.57715Z" stroke="url(#paint0_linear_75_1249)" stroke-width="2"/>
<defs>
<linearGradient id="paint0_linear_75_1249" x1="0" y1="42.3684" x2="84.8335" y2="42.3684" gradientUnits="userSpaceOnUse">
<stop stop-color="#F7941D"/>
<stop offset="1" stop-color="#27AAE1"/>
</linearGradient>
</defs>
</svg>
