<svg width="230" height="230" viewBox="0 0 230 230" fill="none" xmlns="http://www.w3.org/2000/svg">
<path d="M171.133 3.06543C173.887 0.311507 178.845 0.311337 181.599 3.06543L226.672 48.1396C229.797 51.265 229.742 55.8415 226.711 58.5693L226.69 58.5869L177.056 108.222C173.521 111.757 173.521 117.98 177.056 121.516L226.672 171.133C229.426 173.887 229.426 178.844 226.672 181.599L181.599 226.672C178.844 229.426 173.887 229.426 171.133 226.672L121.516 177.056C117.98 173.521 111.757 173.521 108.222 177.056L58.6055 226.672C55.8513 229.426 50.8938 229.426 48.1396 226.672L3.06543 181.599C0.311338 178.845 0.311514 173.887 3.06543 171.133L52.6816 121.516C56.2168 117.98 56.2169 111.757 52.6816 108.222L3.06543 58.6055C0.311385 55.8513 0.311376 50.8938 3.06543 48.1396L48.1396 3.06543C50.8938 0.311367 55.8513 0.311361 58.6055 3.06543L108.222 52.6816C111.757 56.2169 117.98 56.2168 121.516 52.6816L171.133 3.06543Z" fill="white" stroke="url(#paint0_linear_88_3449)" stroke-width="2"/>
<defs>
<linearGradient id="paint0_linear_88_3449" x1="0" y1="114.869" x2="230" y2="114.869" gradientUnits="userSpaceOnUse">
<stop stop-color="#F7941D"/>
<stop offset="1" stop-color="#27AAE1"/>
</linearGradient>
</defs>
</svg>
