<svg width="24" height="24" viewBox="0 0 24 24" fill="none" xmlns="http://www.w3.org/2000/svg">
<path d="M23.25 11.625C23.25 14.5 22.3125 17.0312 20.4375 19.2188C18.5625 21.375 16.2344 22.6719 13.4531 23.1094V15H16.1719L16.6875 11.625H13.4531V9.42188C13.4531 8.23438 14.0781 7.64062 15.3281 7.64062H16.7812V4.78125C15.9062 4.625 15.0469 4.54688 14.2031 4.54688C13.2969 4.54688 12.5156 4.71875 11.8594 5.0625C11.2344 5.40625 10.7344 5.92187 10.3594 6.60938C9.98438 7.29688 9.79688 8.10938 9.79688 9.04688V11.625H6.84375V15H9.79688V23.1094C7.01562 22.6719 4.6875 21.375 2.8125 19.2188C0.9375 17.0312 0 14.5 0 11.625C0 8.40625 1.125 5.67188 3.375 3.42188C5.65625 1.14062 8.40625 0 11.625 0C14.8438 0 17.5781 1.14062 19.8281 3.42188C22.1094 5.67188 23.25 8.40625 23.25 11.625Z" fill="url(#paint0_linear_88_6244)"/>
<defs>
<linearGradient id="paint0_linear_88_6244" x1="-0.375" y1="11.625" x2="23.625" y2="11.625" gradientUnits="userSpaceOnUse">
<stop stop-color="#F7941D"/>
<stop offset="1" stop-color="#27AAE1"/>
</linearGradient>
</defs>
</svg>
