<svg width="21" height="21" viewBox="0 0 21 21" fill="none" xmlns="http://www.w3.org/2000/svg">
<path d="M6.65625 6.70312C7.71875 5.64062 9 5.10938 10.5 5.10938C12 5.10938 13.2656 5.64062 14.2969 6.70312C15.3594 7.73438 15.8906 9 15.8906 10.5C15.8906 12 15.3594 13.2812 14.2969 14.3438C13.2656 15.375 12 15.8906 10.5 15.8906C9 15.8906 7.71875 15.375 6.65625 14.3438C5.625 13.2812 5.10938 12 5.10938 10.5C5.10938 9 5.625 7.73438 6.65625 6.70312ZM8.01562 12.9844C8.70312 13.6719 9.53125 14.0156 10.5 14.0156C11.4688 14.0156 12.2969 13.6719 12.9844 12.9844C13.6719 12.2969 14.0156 11.4688 14.0156 10.5C14.0156 9.53125 13.6719 8.70312 12.9844 8.01562C12.2969 7.32812 11.4688 6.98438 10.5 6.98438C9.53125 6.98438 8.70312 7.32812 8.01562 8.01562C7.32812 8.70312 6.98438 9.53125 6.98438 10.5C6.98438 11.4688 7.32812 12.2969 8.01562 12.9844ZM16.9688 4.03125C17.2188 4.25 17.3438 4.53125 17.3438 4.875C17.3438 5.21875 17.2188 5.51562 16.9688 5.76562C16.75 6.01562 16.4688 6.14062 16.125 6.14062C15.7812 6.14062 15.4844 6.01562 15.2344 5.76562C14.9844 5.51562 14.8594 5.21875 14.8594 4.875C14.8594 4.53125 14.9844 4.25 15.2344 4.03125C15.4844 3.78125 15.7812 3.65625 16.125 3.65625C16.4688 3.65625 16.75 3.78125 16.9688 4.03125ZM20.9531 6.1875C20.9844 7.03125 21 8.46875 21 10.5C21 12.5312 20.9844 13.9688 20.9531 14.8125C20.8594 16.7188 20.2812 18.2031 19.2188 19.2656C18.1875 20.2969 16.7188 20.8438 14.8125 20.9062C13.9688 20.9688 12.5312 21 10.5 21C8.46875 21 7.03125 20.9688 6.1875 20.9062C4.28125 20.8125 2.8125 20.25 1.78125 19.2188C1.375 18.8438 1.04688 18.4062 0.796875 17.9062C0.546875 17.4062 0.359375 16.9219 0.234375 16.4531C0.140625 15.9844 0.09375 15.4375 0.09375 14.8125C0.03125 13.9688 0 12.5312 0 10.5C0 8.46875 0.03125 7.01562 0.09375 6.14062C0.1875 4.26562 0.75 2.8125 1.78125 1.78125C2.8125 0.71875 4.28125 0.140625 6.1875 0.046875C7.03125 0.015625 8.46875 0 10.5 0C12.5312 0 13.9688 0.015625 14.8125 0.046875C16.7188 0.140625 18.1875 0.71875 19.2188 1.78125C20.2812 2.8125 20.8594 4.28125 20.9531 6.1875ZM18.7031 16.6875C18.7969 16.4375 18.875 16.125 18.9375 15.75C19 15.3438 19.0469 14.875 19.0781 14.3438C19.1094 13.7812 19.125 13.3281 19.125 12.9844C19.125 12.6406 19.125 12.1562 19.125 11.5312C19.125 10.9062 19.125 10.5625 19.125 10.5C19.125 10.4062 19.125 10.0625 19.125 9.46875C19.125 8.84375 19.125 8.35938 19.125 8.01562C19.125 7.67188 19.1094 7.23438 19.0781 6.70312C19.0469 6.14062 19 5.67188 18.9375 5.29688C18.875 4.89062 18.7969 4.5625 18.7031 4.3125C18.3281 3.34375 17.6562 2.67188 16.6875 2.29688C16.4375 2.20312 16.1094 2.125 15.7031 2.0625C15.3281 2 14.8594 1.95313 14.2969 1.92188C13.7656 1.89062 13.3281 1.875 12.9844 1.875C12.6719 1.875 12.1875 1.875 11.5312 1.875C10.9062 1.875 10.5625 1.875 10.5 1.875C10.4375 1.875 10.0938 1.875 9.46875 1.875C8.84375 1.875 8.35938 1.875 8.01562 1.875C7.67188 1.875 7.21875 1.89062 6.65625 1.92188C6.125 1.95313 5.65625 2 5.25 2.0625C4.875 2.125 4.5625 2.20312 4.3125 2.29688C3.34375 2.67188 2.67188 3.34375 2.29688 4.3125C2.20312 4.5625 2.125 4.89062 2.0625 5.29688C2 5.67188 1.95312 6.14062 1.92188 6.70312C1.89062 7.23438 1.875 7.67188 1.875 8.01562C1.875 8.32812 1.875 8.8125 1.875 9.46875C1.875 10.0938 1.875 10.4375 1.875 10.5C1.875 10.625 1.875 10.9219 1.875 11.3906C1.875 11.8281 1.875 12.2031 1.875 12.5156C1.875 12.7969 1.875 13.1719 1.875 13.6406C1.90625 14.1094 1.9375 14.5156 1.96875 14.8594C2 15.1719 2.04688 15.5 2.10938 15.8438C2.17188 16.1875 2.23438 16.4688 2.29688 16.6875C2.70312 17.6562 3.375 18.3281 4.3125 18.7031C4.5625 18.7969 4.875 18.875 5.25 18.9375C5.65625 19 6.125 19.0469 6.65625 19.0781C7.21875 19.1094 7.65625 19.125 7.96875 19.125C8.3125 19.125 8.79688 19.125 9.42188 19.125C10.0781 19.125 10.4375 19.125 10.5 19.125C10.5938 19.125 10.9375 19.125 11.5312 19.125C12.1562 19.125 12.6406 19.125 12.9844 19.125C13.3281 19.125 13.7656 19.1094 14.2969 19.0781C14.8594 19.0469 15.3281 19 15.7031 18.9375C16.1094 18.875 16.4375 18.7969 16.6875 18.7031C17.6562 18.2969 18.3281 17.625 18.7031 16.6875Z" fill="url(#paint0_linear_88_6240)"/>
<defs>
<linearGradient id="paint0_linear_88_6240" x1="-0.046875" y1="10.5" x2="20.9531" y2="10.5" gradientUnits="userSpaceOnUse">
<stop stop-color="#F7941D"/>
<stop offset="1" stop-color="#27AAE1"/>
</linearGradient>
</defs>
</svg>
