<svg width="22" height="19" viewBox="0 0 22 19" fill="none" xmlns="http://www.w3.org/2000/svg">
<path d="M21 1.78125L17.8125 16.6875C17.5625 17.75 16.9844 18.0312 16.0781 17.5312L11.25 13.9688L8.90625 16.2188C8.59375 16.5312 8.26562 16.6875 7.92188 16.6875L8.29688 11.7656L17.25 3.70312C17.4688 3.48437 17.4688 3.35938 17.25 3.32812C17.0625 3.26563 16.8594 3.3125 16.6406 3.46875L5.57812 10.4531L0.796875 8.95312C0.265625 8.79688 0.015625 8.5625 0.046875 8.25C0.078125 7.9375 0.40625 7.67188 1.03125 7.45312L19.6406 0.234375C20.1094 0.078125 20.4844 0.140625 20.7656 0.421875C21.0469 0.671875 21.125 1.125 21 1.78125Z" fill="url(#paint0_linear_88_6242)"/>
<defs>
<linearGradient id="paint0_linear_88_6242" x1="0" y1="9.14062" x2="21" y2="9.14062" gradientUnits="userSpaceOnUse">
<stop stop-color="#F7941D"/>
<stop offset="1" stop-color="#27AAE1"/>
</linearGradient>
</defs>
</svg>
