<svg width="26" height="15" viewBox="0 0 26 15" fill="none" xmlns="http://www.w3.org/2000/svg">
<path d="M24.6562 1.03125C24.5625 1.5 24.1875 2.26562 23.5312 3.32812C22.9062 4.39062 22.3281 5.32812 21.7969 6.14062C21.2656 6.92188 20.9844 7.32812 20.9531 7.35938C20.7656 7.64062 20.6719 7.84375 20.6719 7.96875C20.6719 8.09375 20.7656 8.3125 20.9531 8.625C20.9531 8.625 21.0469 8.73438 21.2344 8.95312C21.4531 9.17188 21.7031 9.42188 21.9844 9.70312C22.2656 9.98438 22.5781 10.3125 22.9219 10.6875C23.2656 11.0625 23.5781 11.4375 23.8594 11.8125C24.1719 12.1562 24.4375 12.5156 24.6562 12.8906C24.9062 13.2656 25.0781 13.5781 25.1719 13.8281C25.3906 14.6094 25.0781 15 24.2344 15H21.4688C21.25 15 21.0625 14.9688 20.9062 14.9062C20.75 14.8438 20.5781 14.7344 20.3906 14.5781C20.2031 14.4219 20.0312 14.25 19.875 14.0625C19.7188 13.875 19.4844 13.6094 19.1719 13.2656C18.8594 12.9219 18.5469 12.5938 18.2344 12.2812C16.9844 11.0938 16.0625 10.5 15.4688 10.5C15.0938 10.5 14.875 10.6094 14.8125 10.8281C14.75 11.0469 14.7188 11.6719 14.7188 12.7031C14.75 13.2031 14.7656 13.6094 14.7656 13.9219C14.7656 14.2969 14.6406 14.5781 14.3906 14.7656C14.1406 14.9219 13.5938 15 12.75 15C11.2812 15 9.79688 14.5625 8.29688 13.6875C6.79688 12.8125 5.48438 11.5625 4.35938 9.9375C3.29688 8.5 2.40625 7.07812 1.6875 5.67188C1 4.23438 0.546875 3.14062 0.328125 2.39062C0.109375 1.64062 0 1.10938 0 0.796875C0 0.265625 0.3125 0 0.9375 0H3.70312C4.04688 0 4.29688 0.078125 4.45312 0.234375C4.64062 0.390625 4.79688 0.671875 4.92188 1.07812C5.57812 2.98438 6.375 4.6875 7.3125 6.1875C8.28125 7.6875 9.01562 8.4375 9.51562 8.4375C9.70312 8.4375 9.82812 8.375 9.89062 8.25C9.98438 8.09375 10.0312 7.8125 10.0312 7.40625V3.32812C10 2.89062 9.92188 2.51562 9.79688 2.20312C9.67188 1.89062 9.54688 1.67188 9.42188 1.54688C9.29688 1.39063 9.17188 1.23437 9.04688 1.07812C8.95312 0.921875 8.90625 0.78125 8.90625 0.65625C8.90625 0.53125 8.9375 0.421875 9 0.328125C9.0625 0.234375 9.14062 0.15625 9.23438 0.09375C9.35938 0.03125 9.48438 0 9.60938 0H13.9688C14.4688 0 14.7188 0.34375 14.7188 1.03125V6.46875C14.7188 7 14.8594 7.26562 15.1406 7.26562C15.4531 7.26562 15.8906 6.98438 16.4531 6.42188C17.0469 5.76562 17.625 4.96875 18.1875 4.03125C18.75 3.09375 19.1719 2.3125 19.4531 1.6875L19.875 0.796875C20.0938 0.265625 20.4844 0 21.0469 0H23.8125C24.5625 0 24.8438 0.34375 24.6562 1.03125Z" fill="url(#paint0_linear_88_6241)"/>
<defs>
<linearGradient id="paint0_linear_88_6241" x1="-0.890625" y1="7.5" x2="26.1094" y2="7.5" gradientUnits="userSpaceOnUse">
<stop stop-color="#F7941D"/>
<stop offset="1" stop-color="#27AAE1"/>
</linearGradient>
</defs>
</svg>
