<svg width="26" height="18" viewBox="0 0 26 18" fill="none" xmlns="http://www.w3.org/2000/svg">
<path d="M25.0781 2.8125C25.1719 3.1875 25.25 3.65625 25.3125 4.21875C25.4062 4.78125 25.4688 5.34375 25.5 5.90625C25.5312 6.4375 25.5469 6.9375 25.5469 7.40625C25.5781 7.875 25.5938 8.26562 25.5938 8.57812V9C25.5938 11.8125 25.4219 13.8906 25.0781 15.2344C24.9219 15.7656 24.6406 16.2344 24.2344 16.6406C23.8281 17.0469 23.3438 17.3281 22.7812 17.4844C22.1875 17.6406 21.0625 17.7656 19.4062 17.8594C17.75 17.9219 16.2344 17.9688 14.8594 18H12.7969C7.45312 18 4.125 17.8281 2.8125 17.4844C1.59375 17.1406 0.828125 16.3906 0.515625 15.2344C0.359375 14.6406 0.234375 13.8281 0.140625 12.7969C0.078125 11.7344 0.03125 10.8438 0 10.125V9C0 6.21875 0.171875 4.15625 0.515625 2.8125C0.671875 2.25 0.953125 1.76563 1.35938 1.35938C1.76562 0.953125 2.25 0.671875 2.8125 0.515625C3.40625 0.359375 4.53125 0.25 6.1875 0.1875C7.84375 0.09375 9.35938 0.03125 10.7344 0H12.7969C18.1406 0 21.4688 0.171875 22.7812 0.515625C23.3438 0.671875 23.8281 0.953125 24.2344 1.35938C24.6406 1.76563 24.9219 2.25 25.0781 2.8125ZM10.1719 12.8438L16.875 9L10.1719 5.20312V12.8438Z" fill="url(#paint0_linear_88_6243)"/>
<defs>
<linearGradient id="paint0_linear_88_6243" x1="-0.703125" y1="9" x2="26.2969" y2="9" gradientUnits="userSpaceOnUse">
<stop stop-color="#F7941D"/>
<stop offset="1" stop-color="#27AAE1"/>
</linearGradient>
</defs>
</svg>
