<svg width="100" height="100" viewBox="0 0 100 100" fill="none" xmlns="http://www.w3.org/2000/svg">
<path d="M74.8057 1.7334C75.7823 0.755677 77.579 0.755651 78.5557 1.7334L98.1533 21.3535C99.3039 22.5057 99.2476 24.1223 98.1914 25.0742L98.1719 25.0918L98.1533 25.1104L76.5811 46.708C74.8238 48.4673 74.8238 51.5327 76.5811 53.292L98.1533 74.8896C99.1302 75.868 99.1302 77.6681 98.1533 78.6465L78.5557 98.2666C77.579 99.2444 75.7823 99.2443 74.8057 98.2666L53.2334 76.6699C51.4756 74.9101 48.4112 74.9101 46.6533 76.6699L25.0801 98.2666C24.1034 99.2442 22.3067 99.2443 21.3301 98.2666L1.7334 78.6465C0.756125 77.6681 0.75612 75.868 1.7334 74.8896L23.3057 53.292C25.0625 51.5328 25.0625 48.4672 23.3057 46.708L1.7334 25.1104C0.756124 24.132 0.756123 22.3319 1.7334 21.3535L21.3301 1.7334C22.3067 0.755704 24.1034 0.755833 25.0801 1.7334L46.6533 23.3301C48.4112 25.0899 51.4756 25.0899 53.2334 23.3301L74.8057 1.7334Z" stroke="url(#paint0_linear_88_3376)" stroke-width="2"/>
<defs>
<linearGradient id="paint0_linear_88_3376" x1="0" y1="50" x2="100" y2="50" gradientUnits="userSpaceOnUse">
<stop stop-color="#F7941D"/>
<stop offset="1" stop-color="#27AAE1"/>
</linearGradient>
</defs>
</svg>
