<svg width="99" height="123" viewBox="0 0 99 123" fill="none" xmlns="http://www.w3.org/2000/svg">
<path d="M31.6766 41.6555C31.6766 41.6555 31.5033 43.1721 32.4787 45.2551C33.3692 47.1569 35.2753 49.577 39.2529 51.4688C43.5388 53.5474 47.9958 52.4542 51.2561 50.9276C54.0636 49.6131 55.8497 48.0038 55.9402 47.9614L56.2601 47.7012L74.6838 60.1646L72.3161 79.1613L79.8329 75.6416L79.9234 75.5992C79.9234 75.5992 88.3846 73.6248 91.9891 81.3227L91.7174 81.4499L91.9891 81.3227L91.7174 81.4499L91.9891 81.3227C95.424 88.6584 97.7987 93.7299 97.7987 93.7299L98.0107 94.1828L36.4757 122.886L30.8357 110.841C30.8357 110.841 26.2674 100.613 34.9191 96.4513L40.9869 93.6101L36.3222 83.6481L36.775 83.4361L36.8059 83.9737C36.7154 84.0161 17.1257 85.5699 3.64067 56.7707L3.59826 56.6801C-9.92341 27.5668 18.362 4.49504 27.5089 0.21206L27.9617 3.11587e-05L33.2315 10.7828L63.2502 24.663L63.2926 24.7536C63.2926 24.7536 65.3971 26.4182 66.4572 28.6823C67.2206 30.3125 67.4771 32.5111 65.5523 34.2958C64.7257 35.1245 63.8143 35.7721 62.8181 36.2385C59.105 37.9772 54.6574 36.968 50.8243 34.6773L51.0593 34.236L51.5006 34.471C51.5006 34.471 49.0618 40.5819 43.3563 43.2534C42.5413 43.6351 41.5932 43.9686 40.6933 44.1691C35.1611 45.3241 29.0502 42.8853 26.0452 36.2317C24.9002 33.7865 24.129 30.7246 23.9551 27.0518L24.9398 27.0324C25.0289 30.5241 25.7577 33.4954 26.8602 35.8501C29.7862 42.099 35.3652 44.3451 40.4928 43.2692C41.3927 43.0687 42.1596 42.82 42.9747 42.4383C48.2274 39.9788 50.6122 34.2245 50.6122 34.2245L50.8049 33.6926L51.2886 34.0182C54.9887 36.2608 59.128 37.083 62.3883 35.5564C63.294 35.1324 64.0242 34.5696 64.8932 33.8315C66.4076 32.3494 66.2668 30.8695 65.5459 29.3299C64.6129 27.3375 62.6838 25.8116 62.6838 25.8116L62.9613 25.4608L62.7262 25.9021L32.4416 11.9257L27.2142 1.23341L27.667 1.02138L27.879 1.4742C18.9132 5.67237 -8.7806 28.3567 4.44999 56.6126L4.4924 56.7031C17.8078 85.1401 36.5997 83.2974 36.6421 83.3879L36.9562 83.3513L42.2145 94.5812L35.2411 97.8464C27.5008 101.36 31.6393 110.906 31.6393 110.906L31.1865 111.118L31.6393 110.906L36.8552 122.045L97.0318 93.9786L97.2438 94.4314L96.791 94.6435C96.791 94.6435 94.4587 89.6625 90.9814 82.2363L91.4342 82.0242L90.9814 82.2363C87.7162 75.2629 80.0643 77.0791 80.0219 76.9885L79.9004 76.4933L80.1124 76.9461L70.9655 81.2291L73.5432 61.0299L55.9115 49.079L56.1465 48.6377L56.4491 49.0481C56.4491 49.0481 54.4819 50.7422 51.5838 52.0992C48.233 53.6682 43.5043 54.8886 38.6865 52.6173C34.5335 50.5868 32.4521 48.028 31.4767 45.945C30.4166 43.681 30.5956 41.9409 30.5532 41.8503L31.6766 41.6555Z" fill="url(#paint0_linear_88_3392)"/>
<defs>
<linearGradient id="paint0_linear_88_3392" x1="10.5952" y1="71.6231" x2="73.6274" y2="42.1087" gradientUnits="userSpaceOnUse">
<stop stop-color="#F7941D"/>
<stop offset="1" stop-color="#27AAE1"/>
</linearGradient>
</defs>
</svg>
