<svg width="70" height="85" viewBox="0 0 70 85" fill="none" xmlns="http://www.w3.org/2000/svg">
<path d="M5.10916 64.6444C5.82388 63.4065 6.75555 62.1104 7.33271 60.7931C7.96801 59.6927 8.48139 59.4389 9.7193 60.1536C13.433 62.2978 17.1468 64.4419 20.8605 66.586C24.5743 68.7301 28.1505 70.7949 31.8642 72.939C32.9646 73.5743 33.139 74.2252 32.5037 75.3256C31.6515 76.4841 30.9949 77.939 30.2802 79.1769C29.8037 80.0021 29.3697 80.1184 28.5444 79.6419C20.9794 75.2742 13.4144 70.9066 5.71182 66.4595C4.749 65.9036 4.63269 65.4697 5.10916 64.6444ZM41.499 41.6393C42.8744 42.4334 42.9113 43.0049 42.1966 44.2428C38.8032 49.8028 36.0393 55.5429 34.7303 61.9395C34.3063 64.2622 34.1573 66.7437 33.8708 69.1459C33.8495 69.5004 33.6907 69.7755 33.59 70.2675L11.4451 57.4821C11.6039 57.207 11.7628 56.932 12.0591 56.7363C19.4471 52.1988 24.5394 45.6023 28.8276 38.1748C30.5747 35.1488 30.2201 35.1275 32.4209 36.398C32.696 36.5569 33.1087 36.7951 33.5213 37.0334C34.6217 37.6687 35.5845 38.2246 36.6849 38.8599C37.3726 39.2569 38.0603 39.654 38.7481 40.051C39.4358 40.4481 40.3986 41.004 41.499 41.6393ZM29.8729 29.0584C30.3707 27.8786 31.5136 27.8048 33.0266 28.6784C37.8407 31.4578 42.5173 34.1578 47.3314 36.9373C48.8444 37.8108 49.2145 38.758 48.5792 39.8584C47.6475 41.1545 46.5259 40.8737 45.4255 40.2384C43.0872 38.8884 40.7489 37.5383 38.4106 36.1883C36.0723 34.8383 33.7341 33.4883 31.3958 32.1383C30.0203 31.3442 29.2164 30.5132 29.8729 29.0584ZM35.6841 24.7108C37.5007 19.3408 44.2591 14.6232 50.0106 14.8261C50.3651 14.8474 50.8358 15.3026 51.0315 15.599C53.3895 21.3619 53.6999 26.8595 49.8938 32.1813C48.7239 33.89 48.507 33.9481 46.7189 32.9157C45.0683 31.9628 43.4178 31.0099 41.7673 30.0569C39.9792 29.0245 38.191 27.9922 36.4029 26.9598L36.2654 26.8804C35.4401 26.4039 35.3451 25.6155 35.6841 24.7108ZM49.737 9.89993C49.218 11.4342 48.3501 11.6668 47.1278 11.878C40.4234 13.3257 35.3056 16.7898 32.7743 23.3977C32.356 24.4399 31.9802 24.7731 30.9748 24.9263C27.7417 25.4438 25.6188 28.803 26.8666 31.7241C27.628 33.2641 27.3473 34.3858 26.4156 35.6818C26.0979 36.232 25.7009 36.9197 25.3038 37.6074C21.8097 43.6595 17.7654 49.3939 11.7217 52.8736C7.29741 55.4543 4.38616 58.9085 2.33702 63.4107C1.93995 64.0984 1.6223 64.6486 1.22524 65.3363C0.351706 66.8493 0.526058 67.5002 2.03907 68.3737C4.78999 69.9619 7.67851 71.6296 10.4294 73.2179C12.08 74.1708 13.593 75.0444 15.2435 75.9973C19.645 78.5385 24.0465 81.0797 28.4479 83.6209C29.9609 84.4944 30.6119 84.32 31.4854 82.807C32.5178 81.0189 33.492 79.0139 34.6619 77.3052C36.1494 75.0463 36.711 72.803 36.6643 70.0251C36.5879 60.6279 40.5642 52.4701 45.3658 44.7888C45.5246 44.5137 46.038 44.2599 46.3925 44.2812C50.9061 43.7694 52.7113 40.9603 51.2522 36.8168C51.136 36.3829 51.1785 35.6739 51.4749 35.4782C56.1488 29.9239 56.6694 23.6223 54.5127 16.8753C54.0845 15.7111 53.852 14.8432 54.9212 13.6266C56.2868 12.2143 55.7848 9.90716 53.9967 8.8748C52.4469 7.4298 50.2773 8.01114 49.737 9.89993Z" fill="url(#paint0_linear_88_3562)"/>
<defs>
<linearGradient id="paint0_linear_88_3562" x1="19.3979" y1="33.5982" x2="49.7922" y2="51.1463" gradientUnits="userSpaceOnUse">
<stop stop-color="#F7941D"/>
<stop offset="1" stop-color="#27AAE1"/>
</linearGradient>
</defs>
</svg>
