<svg width="104" height="122" viewBox="0 0 104 122" fill="none" xmlns="http://www.w3.org/2000/svg">
<path d="M43.8302 112.596L95.4381 88.669L97.486 93.0859L45.8781 117.013L43.8302 112.596ZM44.7644 104.255C44.0099 102.628 43.8112 101.59 45.9035 100.62C58.9217 94.5843 71.9398 88.5486 84.958 82.5129C87.0502 81.5428 87.7138 82.3649 88.4683 83.9922C89.2228 85.6195 89.0812 86.5325 87.2214 87.3947C80.7123 90.4126 74.2033 93.4304 67.6942 96.4482C61.1851 99.4661 54.676 102.484 48.1669 105.502C46.5396 106.256 45.6266 106.115 44.7644 104.255ZM52.5732 45.5589C54.2005 44.8044 54.9887 45.2863 55.6353 46.6811C59.5155 55.05 63.6281 63.311 69.6173 70.1371C72.1639 73.193 75.0677 75.8008 77.8467 78.749C78.2947 79.1061 78.8505 79.6958 79.4063 80.2854L48.0232 94.8358C47.9323 94.0306 47.9492 93.4579 47.9661 92.8852C48.0041 83.8295 46.0746 75.4036 42.7672 67.0517C41.1674 62.9919 39.4599 58.6997 37.6276 54.7477C36.9809 53.3529 37.2302 52.6724 38.6251 52.0258C41.1822 50.8402 43.5068 49.7624 46.064 48.5768C48.1562 47.6068 50.2485 46.6367 52.5732 45.5589ZM25.3617 50.8317C24.715 49.4369 23.8359 48.1499 26.1605 47.0721C36.3891 42.3297 46.6177 37.5874 56.8463 32.845C58.7061 31.9828 59.2619 32.5724 60.0164 34.1997C60.6631 35.5945 61.4344 36.649 59.1097 37.7269C53.8876 39.8656 48.6486 42.577 43.5343 44.9482C38.42 47.3193 33.5382 49.5827 28.4239 51.9539C28.4239 51.9539 28.424 51.9539 28.1915 52.0617C26.7967 52.7084 26.1162 52.459 25.3617 50.8317ZM16.8492 44.0458C14.8013 39.6289 12.986 35.1042 10.7057 30.7951C9.73563 28.7029 10.898 28.164 12.2928 27.5173C13.6876 26.8706 14.9577 26.5642 15.5875 28.5317C16.0017 30.0343 16.9886 31.5538 17.6353 32.9486C18.282 34.3434 19.3027 34.7175 20.6976 34.0708C23.4872 32.7774 26.2768 31.484 29.0664 30.1907C30.4612 29.544 30.8353 28.5232 30.1886 27.1284C29.4341 25.5012 28.6797 23.8739 27.9252 22.2466C27.3863 21.0843 27.6357 20.4038 28.798 19.8649C30.8902 18.8948 32.7499 18.0326 34.8421 17.0626C36.0045 16.5237 36.4526 16.8808 36.9915 18.0431C37.746 19.6704 38.5004 21.2977 39.2549 22.925C39.9016 24.3198 40.9222 24.6939 42.317 24.0472C45.1067 22.7538 47.8964 21.4604 50.686 20.1671C52.0808 19.5204 52.4548 18.4997 51.8081 17.1048C51.0536 15.4776 50.4069 14.0828 49.6525 12.4555C48.5577 10.7035 49.9525 10.0568 51.1149 9.51794C51.3474 9.41016 51.3474 9.41015 51.5799 9.30237C52.7422 8.76346 53.6721 8.33231 54.5344 10.1921C56.69 14.8414 58.8456 19.4908 61.0012 24.1401C61.6479 25.5349 61.3984 26.2155 60.0036 26.8622C53.262 29.9878 46.753 33.0057 40.0114 36.1313C38.1517 36.9935 36.2919 37.8558 34.4322 38.718C29.7828 40.8736 25.1335 43.0293 20.2516 45.2927C20.2516 45.2927 20.2516 45.2927 20.0192 45.4004C18.3919 46.1549 17.6036 45.6731 16.8492 44.0458ZM44.0669 11.3734L46.6537 16.9527L42.0043 19.1083C41.0343 17.0161 40.172 15.1563 39.3098 13.2966C38.4475 11.4369 37.4268 11.0628 35.5671 11.925C31.6151 13.7573 27.6631 15.5896 23.9436 17.3141C22.0839 18.1763 21.7098 19.1971 22.5721 21.0568C23.4343 22.9166 24.4043 25.0088 25.2666 26.8685L20.6172 29.0241C19.6472 26.9319 18.7849 25.0722 17.8149 22.98C17.0605 21.3527 15.932 20.7461 14.0722 21.6084C12.6774 22.2551 11.0501 23.0096 9.6553 23.6562C8.72542 24.0874 8.02808 24.4107 7.0982 24.8418C4.54106 26.0274 4.39942 26.9404 5.47723 29.2651C8.38731 35.5417 11.4052 42.0508 14.3152 48.3274C15.5008 50.8846 15.9489 51.2417 18.506 50.0561C19.6684 49.5172 20.3488 49.7666 20.9955 51.1614C21.6422 52.5562 22.3967 54.1835 23.0434 55.5783C23.9056 57.4381 25.1588 57.7043 26.7861 56.9499C28.6458 56.0876 30.5056 55.2254 32.3653 54.3631C34.6287 59.245 36.909 63.5541 38.8322 68.3112C42.0318 76.4307 43.9613 84.8566 43.4752 93.5551C43.2998 95.6135 42.8011 96.9745 40.8336 97.6043C38.6336 98.3418 38.3673 99.595 39.3373 101.687C39.984 103.082 40.6307 104.477 41.1696 105.639C41.8162 107.034 41.9072 107.839 40.1721 108.361C38.437 108.883 38.1708 110.136 38.9252 111.764C40.1108 114.321 41.1886 116.645 42.3742 119.203C43.2365 121.062 44.2571 121.436 46.1169 120.574C50.3013 118.634 54.4857 116.694 58.9026 114.646C72.8507 108.179 86.5664 101.82 100.514 95.3535C103.072 94.1679 103.321 93.4874 102.135 90.9303C101.058 88.6056 100.088 86.5134 99.0097 84.1887C98.1474 82.329 97.1437 81.3822 95.1592 82.5847C93.9969 83.1236 93.3164 82.8742 92.7775 81.7119C92.023 80.0846 91.3763 78.6898 90.6218 77.0625C89.8674 75.4352 88.5064 74.9365 87.2194 75.8156C84.6453 77.5739 82.961 76.3778 81.0611 74.7167C79.717 73.6453 78.2652 72.3413 77.1535 71.1621C70.4669 64.6593 65.8894 56.6138 61.7768 48.3527C60.8068 46.2605 59.729 43.9359 58.6512 41.6112C60.7434 40.6412 62.603 39.7789 64.6953 38.8089C66.3225 38.0544 66.9291 36.9259 66.0669 35.0661C65.4202 33.6713 64.7735 32.2765 64.1269 30.8817C63.4802 29.4869 63.6217 28.5739 65.1243 28.1597C66.8594 27.6377 67.3581 26.2768 66.6036 24.6495C63.478 17.9079 60.2445 10.9339 57.1189 4.19231C56.3644 2.56504 55.236 1.95848 53.484 3.0532C50.9269 4.23878 48.6021 5.3166 46.045 6.50219C46.045 6.50219 46.0451 6.50217 45.8126 6.60995C43.471 8.26047 43.3124 9.74617 44.0669 11.3734Z" fill="url(#paint0_linear_88_3558)"/>
<defs>
<linearGradient id="paint0_linear_88_3558" x1="21.7799" y1="74.7836" x2="81.7566" y2="46.9762" gradientUnits="userSpaceOnUse">
<stop stop-color="#F7941D"/>
<stop offset="1" stop-color="#27AAE1"/>
</linearGradient>
</defs>
</svg>
