<svg width="89" height="113" viewBox="0 0 89 113" fill="none" xmlns="http://www.w3.org/2000/svg">
<path d="M6.56117 86.9623C7.404 85.3572 8.3421 84.0582 8.9843 82.3478C9.6265 80.6375 10.5445 80.3517 12.3502 81.2999C21.1778 85.9354 30.0053 90.571 39.0336 95.3119C40.0367 95.8387 41.2404 96.4708 42.2435 96.9975C43.4473 97.6297 43.6378 98.2416 43.0057 99.4454C42.0575 101.251 41.2147 102.856 40.2665 104.662C39.529 106.066 38.8118 106.457 37.4074 105.72C32.3917 103.086 27.376 100.452 22.5609 97.9236C21.1566 97.1861 19.7522 96.4487 18.3478 95.7112C14.7365 93.8148 11.1252 91.9184 7.5139 90.0221C5.90889 89.1792 5.82369 88.3667 6.56117 86.9623ZM15.4054 75.4817C24.4649 68.4653 31.834 59.7934 37.0064 49.4561C37.8493 47.8511 38.5666 47.4598 40.3722 48.408C44.6806 50.9264 49.1999 53.0436 53.6137 55.3614C54.8174 55.9935 55.2085 56.7108 54.5764 57.9146C48.792 68.4425 45.6259 79.8333 44.9827 91.7812C44.9727 92.2878 44.762 92.6891 44.6465 93.3963L13.5493 77.0665C14.1714 76.3694 14.6881 75.8729 15.4054 75.4817ZM60.6365 48.8112C62.2415 49.6541 63.1293 50.8881 62.0859 52.3878C61.243 53.9928 59.7231 53.9625 58.3187 53.225C55.1087 51.5394 51.6981 49.7484 48.4881 48.0627L38.858 43.0058C37.253 42.163 36.3652 40.9289 37.2081 39.3239C38.1562 37.5183 39.5708 37.7492 41.1758 38.592C44.1852 40.1723 47.1945 41.7526 50.4046 43.4382C53.6146 45.1239 57.0252 46.9149 60.6365 48.8112ZM54.8954 26.6002C57.3634 24.8248 59.8315 23.0494 62.7108 20.9781C62.6403 24.5243 62.4744 27.7646 62.6146 30.9096C62.5541 33.9493 62.85 34.3606 65.6789 34.8223C68.0013 35.274 70.6295 35.6303 72.9519 36.082C73.0471 36.388 73.0472 36.388 73.1424 36.694C69.7464 39.2618 66.1498 41.7243 62.6585 43.9862C62.2472 44.2821 61.2338 44.2618 60.632 43.9458C55.4157 41.2066 50.1994 38.4674 44.9831 35.7282C44.3812 35.4121 43.8846 34.8954 43.8947 34.3888C43.8801 30.03 44.0662 25.7766 44.167 20.7105C46.3537 22.8826 47.9385 24.7386 49.6288 26.394C50.4212 27.3221 50.9177 27.8387 51.5196 28.1548C52.2268 28.2702 52.9441 27.879 54.8954 26.6002ZM65.7615 10.2944C63.7351 10.2541 61.5731 11.9343 61.8388 13.8654C62.1896 16.6092 60.2483 17.3814 58.6029 18.565C56.9576 19.7486 55.4177 20.7316 53.7724 21.9152C52.8444 22.7076 52.1371 22.5922 51.3447 21.6642C48.862 19.0807 46.58 16.6026 43.992 14.2198C43.2948 13.5978 41.8905 12.8603 41.1732 13.2515C40.4558 13.6427 39.7184 15.0471 39.6982 16.0603C39.3968 21.021 39.4013 25.8864 39.3005 30.9525C39.3856 31.7651 39.2703 32.4723 39.1548 33.1796C32.7393 34.6737 31.0435 38.3903 33.6663 44.1188C33.9622 44.5301 33.9421 45.5433 33.7314 45.9446C31.4237 49.8518 29.3166 53.8643 26.8083 57.6662C22.2131 64.4673 16.1283 69.7184 9.54692 74.4529C8.61889 75.2453 7.69082 76.0377 7.16405 77.0408C5.16233 80.8527 3.26596 84.464 1.26424 88.276C0.316056 90.0816 0.802533 91.1049 2.40755 91.9477C14.4452 98.269 26.4828 104.59 38.5204 110.911C40.3261 111.86 41.3494 111.373 42.1922 109.768C43.8779 106.558 45.6689 103.147 47.3546 99.9374C48.1974 98.3324 48.639 96.5167 48.7746 94.7962C49.1218 82.437 51.8867 70.8354 58.0824 60.0116C58.7146 58.8079 59.3365 58.1106 60.9617 57.9403C62.2809 57.8651 63.7156 57.0828 64.6436 56.2904C67.227 53.8078 67.5935 50.6728 65.7329 47.3922C70.6689 43.8414 75.1936 40.5865 79.8236 37.131C80.6463 36.5392 81.0777 35.2301 80.9925 34.4175C80.802 33.8055 79.7037 32.9728 78.7958 32.752C75.5656 32.0796 72.23 31.6077 69.0951 31.2413C67.3746 31.1057 66.4768 30.3783 66.7178 28.4572C66.9688 26.0295 66.9139 23.6971 66.9643 21.1641C66.8892 19.8449 67.3106 19.0424 68.4393 18.3553C70.2853 17.2771 70.9375 15.06 70.1652 13.1188C69.6788 12.0955 69.087 11.2729 68.0839 10.7461C67.482 10.43 66.5741 10.2092 65.7615 10.2944Z" fill="url(#paint0_linear_88_3560)"/>
<defs>
<linearGradient id="paint0_linear_88_3560" x1="23.8099" y1="45.3417" x2="64.7379" y2="66.8339" gradientUnits="userSpaceOnUse">
<stop stop-color="#F7941D"/>
<stop offset="1" stop-color="#27AAE1"/>
</linearGradient>
</defs>
</svg>
